<svg xmlns="http://www.w3.org/2000/svg" viewBox="-26 -929 5104 963" role="img" aria-label="LinkLabz">
  <title>LinkLabz</title>
  <path fill="#F4F1EA" d="M2 0 142 -700H378L275 -183H591L554 0Z M612 0 721 -547H946L837 0Z M1412 -557Q1480 -557 1528.5 -528.5Q1577 -500 1597.5 -443.5Q1618 -387 1601 -302L1541 0H1315L1370 -275Q1388 -367 1317 -367Q1279 -367 1253 -341.5Q1227 -316 1216 -263L1163 0H937L1046 -547H1259L1248 -492Q1284 -525 1327 -541Q1370 -557 1412 -557Z M1639 0 1787 -742H2013L1943 -391L2120 -547H2398L2124 -300L2303 0H2038L1944 -159L1886 -105L1865 0Z"/>
  <path fill="#F5C15C" d="M2344 0 2484 -700H2720L2617 -183H2933L2896 0Z M3204 10Q3150 10 3098 -19.5Q3046 -49 3012.5 -105.5Q2979 -162 2979 -243Q2979 -311 3002 -368Q3025 -425 3065.5 -467.5Q3106 -510 3158.5 -533.5Q3211 -557 3270 -557Q3320 -557 3360.5 -541.5Q3401 -526 3426 -489L3438 -547H3664L3555 0H3342L3352 -50Q3291 10 3204 10Z M3289 -168Q3333 -168 3360.5 -202Q3388 -236 3388 -293Q3388 -331 3366.5 -355Q3345 -379 3307 -379Q3263 -379 3235.5 -345Q3208 -311 3208 -254Q3208 -216 3229.5 -192Q3251 -168 3289 -168Z M3654 0 3802 -742H4028L3982 -510Q4009 -532 4042 -544.5Q4075 -557 4114 -557Q4169 -557 4220.5 -527.5Q4272 -498 4305.5 -442Q4339 -386 4339 -304Q4339 -237 4316 -179.5Q4293 -122 4252.5 -79.5Q4212 -37 4159.5 -13.5Q4107 10 4048 10Q3993 10 3950 -8.5Q3907 -27 3883 -72L3869 0Z M4011 -168Q4055 -168 4082.5 -202Q4110 -236 4110 -293Q4110 -331 4088.5 -355Q4067 -379 4029 -379Q3985 -379 3957.5 -345Q3930 -311 3930 -254Q3930 -216 3951.5 -192Q3973 -168 4011 -168Z M4334 0 4360 -130 4628 -382H4418L4451 -547H4954L4928 -417L4660 -165H4889L4856 0Z"/>
  <path fill="#F5C15C" fill-rule="evenodd" d="M808.2,-722.3L819.7,-710.9L833.7,-702.8L849.3,-698.6L865.4,-698.6L873.4,-700.2L881.0,-702.8L895.0,-710.9L906.4,-722.3L914.5,-736.3L918.7,-751.9L919.2,-760.0L917.1,-776.0L910.9,-790.9L860.8,-876.8L849.3,-888.2L835.3,-896.3L827.7,-898.9L811.7,-901.0L795.6,-898.9L788.0,-896.3L774.0,-888.2L767.9,-882.9L758.1,-870.1L754.5,-862.8L751.9,-855.1L749.8,-839.1L751.9,-823.1L758.1,-808.2Z M780.7,-830.8L779.6,-839.1L782.1,-851.4L786.2,-858.6L795.6,-866.9L807.5,-870.9L815.8,-870.9L827.7,-866.9L834.3,-861.8L839.4,-855.1L887.0,-772.3L889.1,-764.2L889.1,-755.8L885.1,-744.0L880.0,-737.3L869.6,-730.4L857.3,-727.9L845.1,-730.4L834.7,-737.3L829.6,-744.0L783.9,-823.1Z M876.6,-607.1L889.4,-597.3L904.3,-591.1L920.3,-589.0L936.4,-591.1L951.3,-597.3L964.1,-607.1L973.9,-619.9L980.1,-634.9L982.2,-650.9L981.7,-659.0L977.5,-674.6L928.3,-760.9L923.3,-768.2L923.3,-751.3L921.6,-742.8L918.8,-734.5L914.2,-725.6L948.1,-666.9L952.1,-655.1L952.1,-646.7L948.1,-634.9L943.0,-628.2L936.4,-623.1L928.6,-619.9L916.2,-619.1L908.1,-621.3L900.8,-625.5L892.6,-634.9L858.7,-693.6L848.7,-694.1L840.1,-695.8L831.9,-698.6L817.3,-707.0L821.1,-699.1L866.7,-619.9Z"/>
  <path fill="#F5C15C" d="M4982.6,-727.8C4970.3,-671.6 4984.7,-645.8 5038.8,-626.4C4982.6,-638.7 4956.8,-624.3 4937.4,-570.2C4949.7,-626.4 4935.3,-652.2 4881.2,-671.6C4937.4,-659.3 4963.2,-673.7 4982.6,-727.8Z"/>
</svg>
